<svg width="23" height="23" viewBox="0 0 23 23" fill="none" xmlns="http://www.w3.org/2000/svg">
<path fill-rule="evenodd" clip-rule="evenodd" d="M16.9965 15.3704L22.5366 20.8718C22.7385 21.0723 22.7385 21.3964 22.5366 21.5968L22.1115 22.019C21.9096 22.2195 21.5832 22.2195 21.3814 22.019L15.8412 16.5176C15.7467 16.4195 15.6909 16.2916 15.6909 16.1551V15.7201C14.0976 17.1787 11.9717 18.0742 9.63108 18.0742C4.69648 18.0742 0.69812 14.1038 0.69812 9.20374C0.69812 4.30365 4.69648 0.333252 9.63108 0.333252C14.5657 0.333252 18.564 4.30365 18.564 9.20374C18.564 11.528 17.6622 13.639 16.1891 15.2212H16.6314C16.7689 15.2212 16.8977 15.2724 16.9965 15.3704ZM2.07242 9.20374C2.07242 13.3533 5.45234 16.7095 9.63107 16.7095C13.8098 16.7095 17.1897 13.3533 17.1897 9.20374C17.1897 5.05423 13.8098 1.69794 9.63107 1.69794C5.45234 1.69794 2.07242 5.05423 2.07242 9.20374Z" fill="#151C1A"/>
</svg>
