<svg width="167" height="65" viewBox="0 0 167 65" fill="none" xmlns="http://www.w3.org/2000/svg">
<path d="M86.5957 14.4492C86.4134 14.4688 86.2279 14.4785 86.0391 14.4785C85.7396 13.8535 85.4922 13.4173 85.2969 13.1699C85.1016 12.9225 84.8737 12.763 84.6133 12.6914C84.3594 12.6198 83.946 12.584 83.373 12.584H80.9414V16.4805C80.9414 16.9818 80.9902 17.3529 81.0879 17.5938C81.1855 17.8281 81.3158 17.9844 81.4785 18.0625C81.6478 18.1341 81.9017 18.196 82.2402 18.248C82.4811 18.2871 82.6764 18.3229 82.8262 18.3555C82.9824 18.3815 83.1484 18.4271 83.3242 18.4922V19H76.7422L76.7227 18.4922C76.8789 18.4206 77.0286 18.3652 77.1719 18.3262C77.3151 18.2871 77.4388 18.2578 77.543 18.2383C77.6536 18.2122 77.7253 18.196 77.7578 18.1895C78.0508 18.1309 78.2656 18.0658 78.4023 17.9941C78.5391 17.916 78.6465 17.763 78.7246 17.5352C78.8027 17.3008 78.8418 16.9395 78.8418 16.4512V9.0293C78.8418 8.50195 78.7962 8.11458 78.7051 7.86719C78.6204 7.61328 78.4935 7.44076 78.3242 7.34961C78.1615 7.25195 77.8945 7.15104 77.5234 7.04688C77.1784 6.95573 76.8919 6.86784 76.6641 6.7832V6.28516L86.4395 6.27539L88.0801 6.25586V9.2832L87.6406 9.30273C87.543 9.19206 87.4551 9.07487 87.377 8.95117C87.2988 8.82096 87.2012 8.64518 87.084 8.42383C86.9342 8.14388 86.804 7.92253 86.6934 7.75977C86.5827 7.59049 86.4427 7.44076 86.2734 7.31055C86.1107 7.18034 85.9154 7.09896 85.6875 7.06641C85.3815 7.02083 85.0723 6.99479 84.7598 6.98828C84.4538 6.97526 84.0697 6.96875 83.6074 6.96875H81.7324C81.485 6.96875 81.3092 6.98177 81.2051 7.00781C81.1074 7.03385 81.0391 7.0957 81 7.19336C80.9609 7.28451 80.9414 7.44401 80.9414 7.67188V11.8418C81.2214 11.8418 81.6022 11.8483 82.084 11.8613C82.5137 11.8743 82.8262 11.8809 83.0215 11.8809C83.7897 11.8809 84.4212 11.8158 84.916 11.6855C85.1309 11.627 85.2969 11.5163 85.4141 11.3535C85.5378 11.1842 85.6615 10.9531 85.7852 10.6602C85.8047 10.6146 85.8372 10.543 85.8828 10.4453C85.9284 10.3411 85.974 10.2533 86.0195 10.1816L86.5957 10.2012V14.4492ZM93.1777 9.95703C94.0436 9.95703 94.8314 10.1458 95.541 10.5234C96.2572 10.8945 96.8236 11.4284 97.2402 12.125C97.6569 12.8151 97.8652 13.6191 97.8652 14.5371C97.8652 15.4551 97.6569 16.2689 97.2402 16.9785C96.8236 17.6816 96.2669 18.2285 95.5703 18.6191C94.8737 19.0033 94.112 19.1953 93.2852 19.1953C92.4648 19.1953 91.6966 18.9967 90.9805 18.5996C90.2643 18.2025 89.6914 17.6523 89.2617 16.9492C88.832 16.2396 88.6172 15.4388 88.6172 14.5469C88.6172 13.6549 88.8255 12.8607 89.2422 12.1641C89.6589 11.4609 90.2155 10.9173 90.9121 10.5332C91.6152 10.1491 92.3704 9.95703 93.1777 9.95703ZM93.4121 18.4336C94.2389 18.4336 94.8672 18.1374 95.2969 17.5449C95.7266 16.9525 95.9414 16.1745 95.9414 15.2109C95.9414 14.3776 95.8242 13.6126 95.5898 12.916C95.362 12.2129 95.0332 11.653 94.6035 11.2363C94.1738 10.8197 93.679 10.6113 93.1191 10.6113C92.6243 10.6113 92.1849 10.7318 91.8008 10.9727C91.4232 11.2135 91.1237 11.5846 90.9023 12.0859C90.681 12.5872 90.5703 13.2155 90.5703 13.9707C90.5703 14.7129 90.6875 15.429 90.9219 16.1191C91.1562 16.8027 91.4883 17.3594 91.918 17.7891C92.3477 18.2188 92.8457 18.4336 93.4121 18.4336ZM102.504 16.7148C102.504 17.2617 102.615 17.6849 102.836 17.9844C103.064 18.2773 103.438 18.4531 103.959 18.5117C103.959 18.6094 103.956 18.707 103.949 18.8047C103.943 18.9023 103.939 18.9674 103.939 19H99.1348L99.125 18.5117C99.1836 18.4727 99.2585 18.4368 99.3496 18.4043C99.4473 18.3717 99.5449 18.3424 99.6426 18.3164C99.929 18.2383 100.154 18.1536 100.316 18.0625C100.479 17.9648 100.577 17.8216 100.609 17.6328C100.661 17.3529 100.688 17.0664 100.688 16.7734L100.678 7.58398C100.6 7.45378 100.44 7.32682 100.199 7.20312C99.9648 7.07292 99.7337 6.96549 99.5059 6.88086C99.278 6.78971 99.1315 6.73438 99.0664 6.71484L99.0859 6.37305L101.801 5.63086L102.504 5.5625V16.7148ZM108.305 16.7148C108.305 17.2617 108.415 17.6849 108.637 17.9844C108.865 18.2773 109.239 18.4531 109.76 18.5117C109.76 18.6094 109.757 18.707 109.75 18.8047C109.743 18.9023 109.74 18.9674 109.74 19H104.936L104.926 18.5117C104.984 18.4727 105.059 18.4368 105.15 18.4043C105.248 18.3717 105.346 18.3424 105.443 18.3164C105.73 18.2383 105.954 18.1536 106.117 18.0625C106.28 17.9648 106.378 17.8216 106.41 17.6328C106.462 17.3529 106.488 17.0664 106.488 16.7734L106.479 7.58398C106.4 7.45378 106.241 7.32682 106 7.20312C105.766 7.07292 105.535 6.96549 105.307 6.88086C105.079 6.78971 104.932 6.73438 104.867 6.71484L104.887 6.37305L107.602 5.63086L108.305 5.5625V16.7148ZM115.639 9.95703C116.505 9.95703 117.292 10.1458 118.002 10.5234C118.718 10.8945 119.285 11.4284 119.701 12.125C120.118 12.8151 120.326 13.6191 120.326 14.5371C120.326 15.4551 120.118 16.2689 119.701 16.9785C119.285 17.6816 118.728 18.2285 118.031 18.6191C117.335 19.0033 116.573 19.1953 115.746 19.1953C114.926 19.1953 114.158 18.9967 113.441 18.5996C112.725 18.2025 112.152 17.6523 111.723 16.9492C111.293 16.2396 111.078 15.4388 111.078 14.5469C111.078 13.6549 111.286 12.8607 111.703 12.1641C112.12 11.4609 112.676 10.9173 113.373 10.5332C114.076 10.1491 114.831 9.95703 115.639 9.95703ZM115.873 18.4336C116.7 18.4336 117.328 18.1374 117.758 17.5449C118.188 16.9525 118.402 16.1745 118.402 15.2109C118.402 14.3776 118.285 13.6126 118.051 12.916C117.823 12.2129 117.494 11.653 117.064 11.2363C116.635 10.8197 116.14 10.6113 115.58 10.6113C115.085 10.6113 114.646 10.7318 114.262 10.9727C113.884 11.2135 113.585 11.5846 113.363 12.0859C113.142 12.5872 113.031 13.2155 113.031 13.9707C113.031 14.7129 113.148 15.429 113.383 16.1191C113.617 16.8027 113.949 17.3594 114.379 17.7891C114.809 18.2188 115.307 18.4336 115.873 18.4336ZM125.854 16.627L127.641 12.2812C127.517 11.8385 127.318 11.4674 127.045 11.168C126.771 10.8685 126.423 10.709 126 10.6895L126.02 10.2207H130.336C130.349 10.4421 130.355 10.5983 130.355 10.6895C130.271 10.7285 130.137 10.7806 129.955 10.8457C129.708 10.9303 129.525 11.015 129.408 11.0996C129.291 11.1842 129.232 11.3177 129.232 11.5C129.232 11.6367 129.291 11.8646 129.408 12.1836L131 16.5488L132.523 12.4375C132.647 12.1185 132.709 11.8516 132.709 11.6367C132.709 11.4414 132.68 11.2949 132.621 11.1973C132.562 11.0931 132.481 11.0182 132.377 10.9727C132.273 10.9271 132.11 10.875 131.889 10.8164L131.527 10.7188C131.514 10.6276 131.508 10.5495 131.508 10.4844C131.508 10.4258 131.514 10.3379 131.527 10.2207H134.955V10.7383C134.773 10.7643 134.571 10.8457 134.35 10.9824C134.135 11.1191 133.939 11.2852 133.764 11.4805C133.594 11.6693 133.477 11.8516 133.412 12.0273L130.775 19.1367C130.71 19.1758 130.613 19.1953 130.482 19.1953C130.359 19.1953 130.258 19.1758 130.18 19.1367L127.963 13.1797L125.609 19.1367C125.531 19.1758 125.43 19.1953 125.307 19.1953C125.17 19.1953 125.066 19.1758 124.994 19.1367L122.27 12.1738C122.146 11.8548 122.035 11.6074 121.938 11.4316C121.84 11.2559 121.71 11.1061 121.547 10.9824C121.391 10.8522 121.182 10.7578 120.922 10.6992L120.941 10.2207H124.965C124.971 10.3314 124.975 10.4876 124.975 10.6895C124.662 10.7936 124.418 10.9108 124.242 11.041C124.073 11.1712 123.988 11.3568 123.988 11.5977C123.988 11.7083 124.005 11.8125 124.037 11.9102C124.037 11.9362 124.04 11.959 124.047 11.9785L125.854 16.627ZM144.535 19.1953C143.747 19.1953 143.139 19 142.709 18.6094C142.286 18.2122 141.999 17.6979 141.85 17.0664C141.7 16.4349 141.625 15.6829 141.625 14.8105V11.9004C141.54 11.7507 141.381 11.6172 141.146 11.5C140.919 11.3763 140.681 11.2754 140.434 11.1973C140.193 11.1126 140.072 11.0736 140.072 11.0801L140.092 10.7383L142.836 10.0742L143.441 10.0352V14.7031C143.441 15.5365 143.493 16.194 143.598 16.6758C143.702 17.151 143.878 17.4993 144.125 17.7207C144.372 17.9355 144.717 18.043 145.16 18.043C146.065 18.043 146.918 17.6458 147.719 16.8516V11.9004C147.634 11.7507 147.475 11.6172 147.24 11.5C147.012 11.3763 146.775 11.2754 146.527 11.1973C146.286 11.1126 146.166 11.0736 146.166 11.0801L146.186 10.7383L148.93 10.0742L149.535 10.0352V17.0371C149.535 17.3105 149.604 17.5221 149.74 17.6719C149.877 17.8151 150.046 17.9193 150.248 17.9844C150.45 18.0495 150.727 18.1113 151.078 18.1699C151.078 18.2676 151.072 18.3685 151.059 18.4727C151.052 18.5768 151.049 18.6484 151.049 18.6875L147.846 19.1465L147.768 17.584C146.804 18.6582 145.727 19.1953 144.535 19.1953ZM158.139 12.8379C158.048 12.8444 157.895 12.8477 157.68 12.8477C157.491 12.1901 157.204 11.653 156.82 11.2363C156.443 10.8197 155.958 10.6113 155.365 10.6113C154.955 10.6113 154.63 10.7122 154.389 10.9141C154.154 11.1159 154.037 11.4089 154.037 11.793C154.037 12.0599 154.135 12.3073 154.33 12.5352C154.525 12.763 154.763 12.9648 155.043 13.1406C155.329 13.3099 155.704 13.5117 156.166 13.7461C156.277 13.7982 156.443 13.8828 156.664 14C157.393 14.3906 157.924 14.791 158.256 15.2012C158.594 15.6048 158.764 16.0996 158.764 16.6855C158.764 17.2259 158.63 17.6849 158.363 18.0625C158.096 18.4336 157.729 18.7168 157.26 18.9121C156.791 19.1009 156.254 19.1953 155.648 19.1953C155.115 19.1953 154.574 19.1302 154.027 19C153.48 18.8763 153.031 18.707 152.68 18.4922V16.1094C152.934 16.0768 153.106 16.0605 153.197 16.0605C153.347 16.7832 153.611 17.3724 153.988 17.8281C154.372 18.2839 154.896 18.5117 155.561 18.5117C156.036 18.5117 156.43 18.3945 156.742 18.1602C157.061 17.9193 157.221 17.6035 157.221 17.2129C157.221 16.9655 157.149 16.7474 157.006 16.5586C156.863 16.3698 156.677 16.2038 156.449 16.0605C156.221 15.9173 155.88 15.7253 155.424 15.4844C154.812 15.1589 154.346 14.8952 154.027 14.6934C153.533 14.3874 153.158 14.0456 152.904 13.668C152.657 13.2904 152.533 12.8411 152.533 12.3203C152.533 11.819 152.66 11.3926 152.914 11.041C153.168 10.6829 153.513 10.4128 153.949 10.2305C154.385 10.0482 154.877 9.95703 155.424 9.95703C155.925 9.95703 156.4 10.0189 156.85 10.1426C157.305 10.2663 157.715 10.4421 158.08 10.6699L158.139 12.8379Z" fill="#E0DFD5"/>
<path d="M161 42H143.4C142.075 42 141 43.0745 141 44.4V62C141 63.3255 142.075 64.4 143.4 64.4H150.262V56.7845H147.113V53.2H150.262V50.468C150.262 47.3605 152.113 45.644 154.946 45.644C156.303 45.644 157.722 45.886 157.722 45.886V48.936H156.158C154.618 48.936 154.137 49.892 154.137 50.8725V53.2H157.576L157.027 56.7845H154.137V64.4H161C162.325 64.4 163.4 63.3255 163.4 62V44.4C163.4 43.0745 162.325 42 161 42V42Z" fill="white"/>
<path fill-rule="evenodd" clip-rule="evenodd" d="M114 42H96.4C95.0745 42 94 43.0745 94 44.4V62C94 63.3255 95.0745 64.4 96.4 64.4H114C115.325 64.4 116.4 63.3255 116.4 62V44.4C116.4 43.0745 115.325 42 114 42ZM109.915 46.9625C110.611 47.2369 111.161 47.7875 111.436 48.483L111.438 48.4835C111.796 49.3874 111.776 51.3556 111.763 52.6315L111.763 52.6322C111.761 52.843 111.759 53.0349 111.759 53.2C111.759 53.3651 111.761 53.5572 111.763 53.7682V53.7683V53.7684V53.7685V53.7686C111.776 55.0452 111.796 57.0155 111.438 57.9165C111.163 58.612 110.613 59.1626 109.917 59.437C109.014 59.7955 107.049 59.7756 105.773 59.7626C105.561 59.7605 105.368 59.7585 105.202 59.7585C105.039 59.7585 104.85 59.7603 104.643 59.7623C103.366 59.7746 101.39 59.7936 100.486 59.437C99.791 59.1626 99.2404 58.612 98.966 57.9165C98.6078 57.0093 98.6266 55.0299 98.6388 53.7543C98.6407 53.5486 98.6425 53.3612 98.6425 53.1995C98.6425 53.0374 98.6407 52.8492 98.6387 52.6427C98.6266 51.3665 98.6077 49.3867 98.964 48.483C99.2384 47.7875 99.789 47.2369 100.484 46.9625C101.388 46.604 103.353 46.624 104.629 46.6369H104.629H104.629H104.629H104.629C104.841 46.639 105.034 46.641 105.2 46.641C105.363 46.641 105.551 46.6392 105.759 46.6372H105.759H105.759H105.759H105.759C107.035 46.6249 109.012 46.6059 109.915 46.9625ZM102.534 53.2007C102.534 51.7279 103.727 50.5336 105.2 50.533C106.673 50.5336 107.867 51.7271 107.868 53.2C107.868 54.6728 106.674 55.8668 105.201 55.867C103.729 55.8672 102.534 54.6735 102.534 53.2007ZM105.2 57.3C102.936 57.3 101.1 55.4644 101.1 53.2C101.1 50.9356 102.936 49.1 105.2 49.1C107.464 49.1 109.3 50.9356 109.3 53.2C109.301 54.2878 108.87 55.3314 108.101 56.1006C107.331 56.8698 106.288 57.3013 105.2 57.3ZM108.584 49.2946C108.733 49.6522 109.082 49.8852 109.469 49.885L109.471 49.887C109.725 49.8869 109.968 49.7856 110.147 49.6057C110.326 49.4257 110.427 49.1819 110.425 48.928C110.425 48.5409 110.192 48.1919 109.835 48.0438C109.477 47.8957 109.065 47.9777 108.792 48.2515C108.518 48.5253 108.436 48.937 108.584 49.2946ZM111.851 59.85C112.787 58.917 113.08 57.7815 113.144 56.5C113.219 55.178 113.219 51.222 113.144 49.906C113.083 48.6245 112.785 47.4885 111.851 46.5535C110.918 45.6185 109.783 45.3255 108.502 45.261C107.181 45.1865 103.222 45.1865 101.902 45.261C100.625 45.322 99.4905 45.617 98.5515 46.55C97.6125 47.483 97.3235 48.6185 97.259 49.9C97.1845 51.2195 97.1845 55.179 97.259 56.5C97.32 57.779 97.6145 58.915 98.5515 59.85C99.4885 60.785 100.62 61.078 101.902 61.1425C103.222 61.217 107.181 61.217 108.502 61.1425C109.781 61.0815 110.916 60.783 111.851 59.85Z" fill="white"/>
<path fill-rule="evenodd" clip-rule="evenodd" d="M49.4 42H67C68.325 42 69.4 43.075 69.4 44.4V62C69.4 63.325 68.325 64.4 67 64.4H49.4C48.075 64.4 47 63.325 47 62V44.4C47 43.075 48.075 42 49.4 42ZM64.565 50.365C64.565 50.225 64.565 50.08 64.555 49.94C65.195 49.475 65.755 48.895 66.2 48.24C65.61 48.495 64.97 48.68 64.31 48.75C64.99 48.345 65.505 47.705 65.75 46.945C65.12 47.32 64.41 47.595 63.67 47.735C63.07 47.095 62.22 46.7 61.275 46.7C59.275 46.7 57.61 48.505 58.075 50.73C55.355 50.59 52.93 49.29 51.315 47.3C51.03 47.785 50.87 48.345 50.87 48.955C50.8682 50.0522 51.4164 51.0773 52.33 51.685C51.795 51.665 51.285 51.515 50.85 51.27V51.31C50.85 52.905 51.975 54.225 53.475 54.53C52.955 54.665 52.5 54.665 51.995 54.59C52.41 55.89 53.62 56.835 55.06 56.865C53.935 57.745 52.525 58.265 50.99 58.265C50.72 58.265 50.465 58.255 50.2 58.225C51.65 59.155 53.375 59.695 55.235 59.695C61.265 59.695 64.565 54.7 64.565 50.365Z" fill="white"/>
<path fill-rule="evenodd" clip-rule="evenodd" d="M22.4 44.4V62C22.4 63.325 21.325 64.4 20 64.4H2.4C1.075 64.4 0 63.325 0 62V44.4C0 43.075 1.075 42 2.4 42H20C21.325 42 22.4 43.075 22.4 44.4ZM9.34 50.505L14.1 53.21L9.34 55.915V50.505ZM19.92 48.805C20.3 50.235 20.3 53.215 20.3 53.215C20.3 53.215 20.3 56.195 19.92 57.62C19.71 58.41 19.095 59.005 18.31 59.215C16.895 59.6 11.2 59.6 11.2 59.6C11.2 59.6 5.505 59.6 4.09 59.22C3.305 59.01 2.69 58.415 2.48 57.625C2.1 56.195 2.1 53.215 2.1 53.215C2.1 53.215 2.1 50.23 2.48 48.805C2.69 48.015 3.305 47.395 4.09 47.185C5.505 46.8 11.2 46.8 11.2 46.8C11.2 46.8 16.895 46.8 18.31 47.185C19.095 47.395 19.71 48.015 19.92 48.805Z" fill="white"/>
</svg>
